<svg viewBox="0.00000 0.00000 200.00000 80.00000" xmlns="http://www.w3.org/2000/svg"><path d="M 0.00000 0.00000 h 0.92807 v 60.00000 h -0.92807 z M 1.39211 0.00000 h 0.46404 v 60.00000 h -0.46404 z M 2.78422 0.00000 h 0.46404 v 60.00000 h -0.46404 z M 5.10441 0.00000 h 0.46404 v 60.00000 h -0.46404 z M 6.49652 0.00000 h 0.46404 v 60.00000 h -0.46404 z M 7.42459 0.00000 h 0.92807 v 60.00000 h -0.92807 z M 10.20882 0.00000 h 1.39211 v 60.00000 h -1.39211 z M 12.06497 0.00000 h 0.92807 v 60.00000 h -0.92807 z M 13.45708 0.00000 h 1.39211 v 60.00000 h -1.39211 z M 15.31323 0.00000 h 0.46404 v 60.00000 h -0.46404 z M 16.24130 0.00000 h 0.92807 v 60.00000 h -0.92807 z M 19.02552 0.00000 h 0.46404 v 60.00000 h -0.46404 z M 20.41763 0.00000 h 0.46404 v 60.00000 h -0.46404 z M 22.73782 0.00000 h 0.46404 v 60.00000 h -0.46404 z M 23.66589 0.00000 h 0.92807 v 60.00000 h -0.92807 z M 25.52204 0.00000 h 0.46404 v 60.00000 h -0.46404 z M 26.91415 0.00000 h 1.39211 v 60.00000 h -1.39211 z M 28.77030 0.00000 h 0.92807 v 60.00000 h -0.92807 z M 30.62645 0.00000 h 0.46404 v 60.00000 h -0.46404 z M 32.01856 0.00000 h 0.46404 v 60.00000 h -0.46404 z M 34.33875 0.00000 h 0.92807 v 60.00000 h -0.92807 z M 35.73086 0.00000 h 0.92807 v 60.00000 h -0.92807 z M 37.12297 0.00000 h 1.39211 v 60.00000 h -1.39211 z M 39.44316 0.00000 h 0.46404 v 60.00000 h -0.46404 z M 40.83527 0.00000 h 0.92807 v 60.00000 h -0.92807 z M 42.69142 0.00000 h 0.46404 v 60.00000 h -0.46404 z M 43.61949 0.00000 h 1.39211 v 60.00000 h -1.39211 z M 45.93968 0.00000 h 0.46404 v 60.00000 h -0.46404 z M 47.33179 0.00000 h 0.92807 v 60.00000 h -0.92807 z M 48.72390 0.00000 h 1.39211 v 60.00000 h -1.39211 z M 51.04408 0.00000 h 0.92807 v 60.00000 h -0.92807 z M 52.90023 0.00000 h 0.46404 v 60.00000 h -0.46404 z M 53.82831 0.00000 h 1.39211 v 60.00000 h -1.39211 z M 56.14849 0.00000 h 0.46404 v 60.00000 h -0.46404 z M 57.54060 0.00000 h 0.46404 v 60.00000 h -0.46404 z M 59.86079 0.00000 h 0.92807 v 60.00000 h -0.92807 z M 61.25290 0.00000 h 0.46404 v 60.00000 h -0.46404 z M 62.64501 0.00000 h 1.39211 v 60.00000 h -1.39211 z M 64.96520 0.00000 h 0.92807 v 60.00000 h -0.92807 z M 66.35731 0.00000 h 1.39211 v 60.00000 h -1.39211 z M 68.21346 0.00000 h 0.92807 v 60.00000 h -0.92807 z M 69.60557 0.00000 h 1.39211 v 60.00000 h -1.39211 z M 71.46172 0.00000 h 0.46404 v 60.00000 h -0.46404 z M 72.85383 0.00000 h 0.92807 v 60.00000 h -0.92807 z M 74.24594 0.00000 h 1.39211 v 60.00000 h -1.39211 z M 76.56613 0.00000 h 0.92807 v 60.00000 h -0.92807 z M 78.42227 0.00000 h 0.46404 v 60.00000 h -0.46404 z M 79.81439 0.00000 h 1.39211 v 60.00000 h -1.39211 z M 81.67053 0.00000 h 1.39211 v 60.00000 h -1.39211 z M 83.52668 0.00000 h 0.92807 v 60.00000 h -0.92807 z M 84.91879 0.00000 h 1.39211 v 60.00000 h -1.39211 z M 86.77494 0.00000 h 0.46404 v 60.00000 h -0.46404 z M 88.16705 0.00000 h 1.39211 v 60.00000 h -1.39211 z M 90.48724 0.00000 h 0.92807 v 60.00000 h -0.92807 z M 91.87935 0.00000 h 0.46404 v 60.00000 h -0.46404 z M 94.19954 0.00000 h 0.46404 v 60.00000 h -0.46404 z M 95.59165 0.00000 h 0.92807 v 60.00000 h -0.92807 z M 96.98376 0.00000 h 0.46404 v 60.00000 h -0.46404 z M 98.37587 0.00000 h 0.92807 v 60.00000 h -0.92807 z M 99.76798 0.00000 h 1.39211 v 60.00000 h -1.39211 z M 102.08817 0.00000 h 1.39211 v 60.00000 h -1.39211 z M 103.94432 0.00000 h 0.46404 v 60.00000 h -0.46404 z M 105.33643 0.00000 h 0.92807 v 60.00000 h -0.92807 z M 107.19258 0.00000 h 0.46404 v 60.00000 h -0.46404 z M 108.58469 0.00000 h 1.39211 v 60.00000 h -1.39211 z M 110.44084 0.00000 h 0.92807 v 60.00000 h -0.92807 z M 112.29698 0.00000 h 0.46404 v 60.00000 h -0.46404 z M 113.68910 0.00000 h 1.39211 v 60.00000 h -1.39211 z M 116.00928 0.00000 h 0.92807 v 60.00000 h -0.92807 z M 117.40139 0.00000 h 0.46404 v 60.00000 h -0.46404 z M 118.79350 0.00000 h 0.46404 v 60.00000 h -0.46404 z M 121.11369 0.00000 h 0.92807 v 60.00000 h -0.92807 z M 122.50580 0.00000 h 0.46404 v 60.00000 h -0.46404 z M 123.89791 0.00000 h 0.92807 v 60.00000 h -0.92807 z M 125.29002 0.00000 h 1.39211 v 60.00000 h -1.39211 z M 127.61021 0.00000 h 0.92807 v 60.00000 h -0.92807 z M 129.46636 0.00000 h 0.46404 v 60.00000 h -0.46404 z M 130.39443 0.00000 h 1.39211 v 60.00000 h -1.39211 z M 132.71462 0.00000 h 0.46404 v 60.00000 h -0.46404 z M 134.10673 0.00000 h 0.46404 v 60.00000 h -0.46404 z M 135.03480 0.00000 h 0.92807 v 60.00000 h -0.92807 z M 137.81903 0.00000 h 0.92807 v 60.00000 h -0.92807 z M 139.21114 0.00000 h 1.39211 v 60.00000 h -1.39211 z M 141.53132 0.00000 h 0.46404 v 60.00000 h -0.46404 z M 142.92343 0.00000 h 0.92807 v 60.00000 h -0.92807 z M 144.77958 0.00000 h 0.46404 v 60.00000 h -0.46404 z M 145.70766 0.00000 h 1.39211 v 60.00000 h -1.39211 z M 148.02784 0.00000 h 0.46404 v 60.00000 h -0.46404 z M 150.34803 0.00000 h 0.46404 v 60.00000 h -0.46404 z M 151.27610 0.00000 h 0.92807 v 60.00000 h -0.92807 z M 153.13225 0.00000 h 0.46404 v 60.00000 h -0.46404 z M 154.06032 0.00000 h 0.92807 v 60.00000 h -0.92807 z M 155.91647 0.00000 h 0.46404 v 60.00000 h -0.46404 z M 158.23666 0.00000 h 0.46404 v 60.00000 h -0.46404 z M 159.62877 0.00000 h 0.46404 v 60.00000 h -0.46404 z M 160.55684 0.00000 h 0.92807 v 60.00000 h -0.92807 z M 163.34107 0.00000 h 0.46404 v 60.00000 h -0.46404 z M 164.26914 0.00000 h 0.92807 v 60.00000 h -0.92807 z M 166.12529 0.00000 h 0.46404 v 60.00000 h -0.46404 z M 168.44548 0.00000 h 0.92807 v 60.00000 h -0.92807 z M 170.30162 0.00000 h 1.39211 v 60.00000 h -1.39211 z M 172.62181 0.00000 h 0.46404 v 60.00000 h -0.46404 z M 173.54988 0.00000 h 0.46404 v 60.00000 h -0.46404 z M 175.87007 0.00000 h 0.46404 v 60.00000 h -0.46404 z M 177.26218 0.00000 h 0.92807 v 60.00000 h -0.92807 z M 178.65429 0.00000 h 0.46404 v 60.00000 h -0.46404 z M 180.04640 0.00000 h 0.46404 v 60.00000 h -0.46404 z M 182.36659 0.00000 h 0.92807 v 60.00000 h -0.92807 z M 183.75870 0.00000 h 1.39211 v 60.00000 h -1.39211 z M 185.61485 0.00000 h 0.46404 v 60.00000 h -0.46404 z M 187.00696 0.00000 h 0.92807 v 60.00000 h -0.92807 z M 188.86311 0.00000 h 0.92807 v 60.00000 h -0.92807 z M 190.25522 0.00000 h 1.39211 v 60.00000 h -1.39211 z M 193.03944 0.00000 h 0.46404 v 60.00000 h -0.46404 z M 193.96752 0.00000 h 0.92807 v 60.00000 h -0.92807 z M 196.28770 0.00000 h 1.39211 v 60.00000 h -1.39211 z M 198.14385 0.00000 h 0.46404 v 60.00000 h -0.46404 z M 199.07193 0.00000 h 0.92807 v 60.00000 h -0.92807 z " style="fill: #000000"/><text style="fill: #000000; font-family: &quot;monospace&quot;; font-size: 16.00000px" x="0.00000" y="0.00000"><tspan style="text-anchor: middle" x="100.00000" y="76.00000">a7fc0b53-3b17-471d-801b-3a53ceae2db8</tspan></text></svg>